<svg fill="#ffffff" xmlns="http://www.w3.org/2000/svg"  viewBox="0 0 50 50" width="50px" height="50px"><path d="M17.656 24.331c.811.879 1.926 1.539 2.725 2.012.468.277.911.539 1.272.794.171.121.346.242.522.363C23.926 28.712 25 29.53 25 31.022c0 .931-.346 1.546-1.694 3.315-.764-.763-1.93-1.546-3.531-2.62l-1.035-.697c-2.224-1.504-2.586-1.865-2.654-3.504-.046-1.097.801-2.283 1.122-2.638l.048-.051.044-.054L17.656 24.331M18.06 20.647l-2.318 2.87c0 0-1.747 1.878-1.656 4.084.11 2.649 1.225 3.516 3.532 5.077 3.753 2.538 5.518 3.532 4.525 4.635.883.662.331.221.883.662C25.896 34.223 27 33.122 27 31.022c0-2.87-2.318-4.194-4.194-5.518-1.876-1.324-4.967-2.428-3.973-4.304C18.06 20.647 18.06 20.647 18.06 20.647L18.06 20.647zM24.603 7.35c.702.926 1.622 1.508 1.977 1.711.665.457 5.437 3.738 6.799 4.681 1.542 1.068 3.312 2.577 3.312 4.786 0 2.477-1.125 3.791-1.151 3.821l-.064.068-.057.074-2.336 3.011c-.844-1.598-2.245-2.675-2.449-2.827l-.031-.023-.031-.021c-.061-.042-6.072-4.161-7.376-5.139-.893-.67-1.795-2.249-1.795-4.266 0-1.839 1.152-3.145 1.151-3.145 0 0 0 0 0 0l.077-.082.067-.09L24.603 7.35M25.35 3l-4.258 5.713c0 0-1.692 1.805-1.692 4.512 0 2.707 1.241 4.851 2.595 5.866 1.354 1.015 7.446 5.189 7.446 5.189s2 1.485 2.256 3.272c.179 1.247.089 1.432-.249 1.996C32.124 30 32.124 30 32.124 30l4.875-6.283c0 0 1.692-1.805 1.692-5.189 0-3.384-2.707-5.415-4.174-6.43-1.467-1.015-6.881-4.738-6.881-4.738s-1.918-1.015-1.918-2.482c0-1.128.309-1.314.309-1.314L25.35 3 25.35 3zM29.781 47L20.219 47 19.219 43 12 43 13 41 37 41 38 43 30.781 43z"/></svg>